<?xml version="1.0" encoding="UTF-8" ?>
<!DOCTYPE svg PUBLIC "-//W3C//DTD SVG 1.1//EN" "http://www.w3.org/Graphics/SVG/1.1/DTD/svg11.dtd">
<svg width="990pt" height="989pt" viewBox="0 0 990 989" version="1.1" xmlns="http://www.w3.org/2000/svg">
<defs>
  <filter
    id="outer-outline"
    x="-24"
    y="-24"
    width="1038"
    height="1037"
    filterUnits="userSpaceOnUse"
    primitiveUnits="userSpaceOnUse"
  >
    <feMorphology in="SourceAlpha" operator="dilate" radius="12" result="dilatedAlpha" />
    <feComposite in="dilatedAlpha" in2="SourceAlpha" operator="out" result="outlineRing" />
    <feFlood flood-color="#F5ECD9" flood-opacity="1" result="outlineColor" />
    <feComposite in="outlineColor" in2="outlineRing" operator="in" result="coloredOutline" />
  </filter>
</defs>
<use href="#tuireel-mark" filter="url(#outer-outline)" />
<g id="tuireel-mark">
<g id="#141015ff">
<path fill="#141015" opacity="1.00" d=" M 0.00 0.00 L 0.12 0.00 C 0.09 0.01 0.03 0.02 0.00 0.02 L 0.00 0.00 Z" />
<path fill="#141015" opacity="1.00" d=" M 155.88 222.84 C 184.56 207.61 218.29 202.03 250.32 207.55 C 264.87 210.68 279.29 216.37 290.40 226.53 C 306.18 239.63 316.41 259.45 317.18 280.01 C 318.01 292.08 316.01 304.53 310.22 315.24 C 304.05 328.28 293.16 338.58 280.90 345.89 C 259.60 357.34 235.05 361.87 211.01 361.28 C 199.06 361.31 187.30 358.95 175.67 356.47 C 169.78 333.45 157.98 311.73 140.81 295.19 C 125.55 282.09 106.55 273.08 86.53 270.50 C 76.43 269.01 66.22 268.13 56.00 268.29 C 42.94 267.84 29.95 269.40 16.94 270.12 C 23.47 261.38 31.33 253.57 40.35 247.39 C 55.46 236.48 73.00 229.03 91.24 225.30 C 98.47 224.10 105.81 223.50 113.14 223.13 C 119.17 228.39 125.57 233.24 131.11 239.04 C 138.92 232.98 147.39 227.86 155.88 222.84 M 217.38 220.51 C 204.42 220.97 193.43 233.15 193.63 246.00 C 193.32 259.15 204.79 271.36 218.00 271.60 C 227.54 272.45 237.12 266.89 241.41 258.40 C 246.66 248.52 244.80 235.18 236.41 227.60 C 231.46 222.62 224.42 219.77 217.38 220.51 Z" />
<path fill="#141015" opacity="1.00" d=" M 332.11 376.11 C 336.93 371.04 342.48 366.77 348.03 362.54 C 348.52 365.58 349.11 368.60 349.64 371.64 C 343.80 381.07 338.94 391.15 335.82 401.81 C 331.66 416.81 330.08 432.47 330.88 448.00 C 331.96 478.76 343.06 508.95 361.48 533.54 C 365.63 538.70 369.44 544.16 374.22 548.78 C 378.77 553.22 383.15 557.84 388.01 561.95 C 406.10 577.34 426.36 590.15 447.99 599.93 C 470.71 610.26 494.65 617.78 519.04 622.96 C 549.06 629.73 579.74 632.97 610.37 635.42 C 636.54 637.27 662.77 638.06 688.99 638.80 C 698.83 639.16 708.68 638.78 718.52 639.24 C 721.22 641.95 724.17 644.45 726.38 647.61 C 727.45 649.19 728.93 650.42 730.47 651.55 C 733.32 653.64 735.49 656.49 738.31 658.64 C 742.09 661.56 745.59 664.82 749.32 667.81 C 740.21 667.65 731.11 667.81 722.00 667.64 C 712.73 667.79 703.44 667.33 694.18 667.94 C 688.94 663.10 684.30 657.62 678.69 653.18 C 676.28 651.27 674.32 648.84 671.81 647.06 C 668.92 646.40 665.93 646.67 662.99 646.66 C 650.76 646.87 638.52 646.42 626.30 646.88 C 627.61 648.49 628.94 650.10 630.41 651.59 C 639.29 660.38 648.13 669.20 656.92 678.09 C 660.07 681.25 663.95 683.68 666.63 687.33 C 669.21 690.76 672.80 693.17 675.89 696.10 C 702.57 722.75 729.26 749.40 755.93 776.07 C 757.50 777.56 759.40 778.63 761.28 779.70 C 761.71 773.48 759.22 767.32 760.90 761.16 C 763.39 762.94 765.79 764.86 767.94 767.06 C 773.24 772.42 778.65 777.68 783.93 783.07 C 787.85 787.16 792.48 790.49 796.44 794.56 C 804.73 802.93 813.15 811.18 821.42 819.58 C 824.38 822.64 827.90 825.08 830.93 828.06 C 839.38 836.61 847.99 845.00 856.41 853.58 C 859.69 856.99 863.69 859.61 866.94 863.06 C 868.95 865.04 870.73 867.34 873.18 868.83 C 875.36 869.54 877.72 869.39 880.01 869.45 C 889.46 869.30 898.93 869.59 908.38 869.18 C 908.84 869.32 909.76 869.61 910.23 869.75 C 887.48 870.03 864.73 869.70 841.98 869.83 C 828.51 868.89 814.87 866.41 802.78 860.14 C 793.45 855.21 782.85 852.94 774.10 846.89 C 768.12 843.39 763.82 837.85 758.83 833.18 C 754.64 829.32 751.63 824.41 747.35 820.65 C 742.26 816.04 738.34 810.35 733.34 805.66 C 730.65 802.99 728.57 799.78 725.85 797.14 C 723.14 794.50 720.40 791.87 718.10 788.85 C 714.49 784.17 709.62 780.64 706.10 775.87 C 702.52 771.17 697.67 767.63 694.06 762.95 C 690.81 758.58 686.43 755.23 683.10 750.93 C 679.80 746.58 675.40 743.25 672.10 738.91 C 667.89 733.48 662.28 729.34 658.09 723.91 C 654.97 719.71 650.69 716.58 647.56 712.40 C 643.69 707.32 638.46 703.48 634.61 698.39 C 631.75 694.62 627.97 691.68 625.02 688.00 C 622.07 684.29 618.71 680.96 615.32 677.68 C 612.03 674.60 609.68 670.68 606.36 667.65 C 603.47 664.93 600.64 662.10 598.61 658.67 C 581.14 663.97 563.65 669.15 546.06 674.02 C 546.83 678.72 547.37 683.47 547.69 688.23 C 546.77 690.00 545.01 691.20 543.67 692.66 C 540.35 695.70 537.74 699.40 534.64 702.65 C 528.07 709.41 521.18 715.85 514.80 722.79 C 508.12 730.75 500.40 737.73 493.15 745.16 C 489.26 748.70 486.15 752.97 482.42 756.67 C 486.55 758.16 490.95 758.64 495.18 759.82 C 506.86 762.78 518.57 765.83 529.81 770.22 C 532.28 766.31 535.63 763.12 538.74 759.74 C 541.38 756.11 544.57 752.95 547.84 749.89 C 552.40 752.88 557.29 755.31 562.04 758.01 C 573.90 764.16 585.47 770.84 597.10 777.41 C 595.99 782.63 593.15 787.20 590.99 792.01 C 588.92 796.58 586.95 801.19 584.86 805.75 C 591.27 811.12 597.97 816.18 603.66 822.35 C 608.80 827.87 614.86 832.60 619.19 838.84 C 624.54 836.66 630.20 835.44 635.69 833.68 C 640.02 832.39 644.20 830.50 648.73 829.97 C 658.04 846.01 668.82 861.12 678.13 877.16 C 670.42 885.25 661.68 892.24 653.96 900.31 C 661.26 916.73 666.58 934.10 669.05 951.93 C 668.81 953.85 670.67 954.42 672.19 954.73 C 683.70 957.00 695.28 958.87 706.83 960.92 C 706.79 970.28 706.79 979.64 706.83 989.00 L 644.81 989.00 C 643.98 983.56 643.99 978.04 643.42 972.57 C 641.88 956.75 639.03 940.98 633.95 925.89 C 625.44 900.38 612.69 876.18 595.63 855.33 C 575.50 831.19 549.73 811.68 520.87 799.17 C 508.99 793.70 496.49 789.66 483.84 786.36 C 469.08 783.25 454.13 780.64 439.01 780.21 C 403.85 778.79 368.17 785.24 336.38 800.53 C 314.07 810.72 294.27 825.71 276.84 842.84 C 266.16 854.31 256.13 866.51 248.11 880.02 C 228.01 912.58 217.16 950.74 217.08 989.00 L 154.19 989.00 C 154.18 979.64 154.22 970.29 154.18 960.93 C 164.27 959.13 174.35 957.26 184.44 955.49 C 186.82 955.02 189.47 955.06 191.51 953.58 C 192.27 950.42 192.42 947.16 193.07 943.99 C 194.02 938.55 195.67 933.28 196.95 927.93 C 199.22 918.46 202.94 909.42 206.48 900.38 C 201.73 896.53 197.83 891.78 193.25 887.76 C 189.48 884.47 185.53 881.32 182.30 877.49 C 182.26 877.13 182.19 876.43 182.16 876.07 C 184.17 871.94 186.96 868.25 189.30 864.31 C 197.16 852.92 204.14 840.95 211.96 829.53 C 222.40 832.07 232.66 835.28 242.90 838.51 C 250.15 829.29 259.29 821.83 267.32 813.33 C 272.06 809.05 277.07 805.03 282.33 801.41 C 278.82 792.52 275.05 783.73 271.72 774.77 C 283.76 767.73 295.96 760.94 308.13 754.13 C 312.74 751.72 317.07 748.80 321.89 746.81 C 324.23 748.54 326.61 750.25 328.66 752.34 C 332.15 755.89 336.22 758.79 339.75 762.30 C 346.30 759.13 353.45 757.55 360.29 755.21 C 361.84 753.04 362.76 750.49 364.28 748.29 C 373.36 734.87 382.83 721.69 393.11 709.15 C 396.18 705.25 399.14 701.24 402.68 697.75 C 400.42 692.42 398.48 686.97 396.48 681.54 C 395.19 678.08 394.66 673.88 391.27 671.74 C 386.91 668.88 383.85 663.96 378.57 662.72 C 377.96 663.97 376.75 666.47 376.15 667.71 C 357.69 661.17 339.79 653.01 322.81 643.23 C 306.72 634.20 291.80 623.18 277.85 611.14 C 273.93 607.03 269.16 603.86 265.39 599.60 C 261.73 596.23 258.56 592.42 255.32 588.67 C 248.64 582.24 243.01 574.82 237.66 567.28 C 236.11 565.11 234.15 563.29 232.45 561.26 C 231.56 557.35 229.08 554.15 227.32 550.64 C 218.61 534.11 211.10 516.70 207.72 498.24 C 211.77 502.89 215.24 508.04 219.57 512.46 C 227.68 522.02 237.34 530.11 247.28 537.71 C 261.49 548.43 277.42 556.56 293.57 563.90 C 278.37 530.72 275.25 492.19 284.91 457.00 C 292.76 426.35 309.52 398.18 332.11 376.11 M 460.17 672.63 C 460.22 677.60 461.12 682.55 460.73 687.53 C 458.23 690.12 455.51 692.51 453.43 695.47 C 451.52 698.17 448.77 700.13 446.92 702.89 C 445.09 705.69 442.22 707.60 440.45 710.45 C 438.35 713.61 434.99 715.67 432.92 718.86 C 431.14 721.71 428.23 723.58 426.38 726.37 C 424.34 729.60 421.02 731.71 418.91 734.89 C 416.80 738.06 413.59 740.26 411.33 743.32 C 408.54 747.30 404.43 750.18 402.13 754.54 C 409.74 753.48 417.31 752.22 425.00 751.82 C 431.25 750.74 437.60 751.34 443.90 751.19 C 445.48 747.84 448.37 745.45 450.41 742.42 C 460.39 729.73 470.19 716.91 480.43 704.44 C 483.02 701.64 484.97 698.31 487.87 695.80 C 485.09 689.34 483.19 682.54 481.00 675.86 C 473.99 675.54 467.03 674.06 460.17 672.63 Z" />
<path fill="#141015" opacity="1.00" d=" M 327.23 835.17 C 353.76 817.20 385.34 807.17 417.27 805.30 C 417.68 811.53 417.34 817.77 417.45 824.00 C 417.45 849.71 417.55 875.42 417.33 901.13 C 408.39 902.60 399.51 905.08 391.59 909.59 C 386.93 912.50 382.59 915.89 378.28 919.30 C 371.80 913.57 364.87 908.39 358.18 902.91 C 338.96 887.32 319.85 871.62 300.65 856.01 C 308.94 848.38 317.80 841.35 327.23 835.17 Z" />
<path fill="#141015" opacity="1.00" d=" M 444.70 805.53 C 458.15 806.51 471.61 808.42 484.51 812.46 C 512.96 820.35 538.89 836.02 560.43 856.05 C 557.12 858.54 554.02 861.27 550.86 863.94 C 543.93 869.64 536.80 875.11 530.03 881.01 C 514.21 893.47 498.69 906.30 483.24 919.22 C 472.23 910.22 459.19 902.81 444.76 901.69 C 444.56 869.64 444.78 837.58 444.70 805.53 Z" />
<path fill="#141015" opacity="1.00" d=" M 256.66 920.72 C 262.75 905.02 270.75 889.95 281.08 876.62 C 307.14 898.63 334.03 919.63 359.91 941.85 C 356.64 947.02 353.25 952.20 351.07 957.96 C 347.27 967.81 345.11 978.41 345.54 989.00 L 244.35 989.00 C 243.99 975.95 245.48 962.91 248.11 950.15 C 250.34 940.18 252.79 930.20 256.66 920.72 Z" />
<path fill="#141015" opacity="1.00" d=" M 516.91 928.89 C 537.86 911.32 558.69 893.59 580.08 876.55 C 587.67 886.52 594.44 897.16 599.46 908.66 C 611.31 933.68 617.15 961.37 617.51 989.00 L 516.36 989.00 C 516.32 981.94 515.87 974.84 514.14 967.97 C 511.86 958.47 507.44 949.57 501.75 941.65 C 506.52 937.08 511.86 933.15 516.91 928.89 Z" />
<path fill="#141015" opacity="1.00" d=" M 407.26 954.21 C 421.66 944.34 442.10 944.63 456.38 954.60 C 467.66 962.26 474.07 975.64 475.24 989.00 L 387.98 989.00 C 388.29 975.13 395.82 961.94 407.26 954.21 Z" />
</g>
<g id="#18AAA7ff">
<path fill="#18AAA7" opacity="1.00" d=" M 196.96 182.96 C 207.55 181.08 218.36 182.69 229.01 181.59 C 234.05 181.20 239.07 182.03 244.10 182.17 C 254.14 183.14 264.39 183.71 273.88 187.46 C 289.17 193.53 304.68 200.71 316.10 212.90 C 331.63 228.37 347.17 243.84 362.69 259.33 C 390.10 285.24 417.50 311.18 444.84 337.17 C 451.07 342.63 456.70 348.74 462.92 354.21 C 460.83 354.56 458.72 354.24 456.87 353.22 C 451.44 350.45 445.69 348.39 440.06 346.08 C 432.72 343.51 424.97 342.36 417.26 341.67 C 408.10 340.49 398.82 341.28 389.74 342.68 C 377.94 344.65 366.92 349.70 356.79 355.92 C 353.64 357.81 350.89 360.26 348.03 362.54 C 342.48 366.77 336.93 371.04 332.11 376.11 C 309.52 398.18 292.76 426.35 284.91 457.00 C 275.25 492.19 278.37 530.72 293.57 563.90 C 277.42 556.56 261.49 548.43 247.28 537.71 C 237.34 530.11 227.68 522.02 219.57 512.46 C 215.24 508.04 211.77 502.89 207.72 498.24 C 211.10 516.70 218.61 534.11 227.32 550.64 C 229.08 554.15 231.56 557.35 232.45 561.26 C 224.07 550.49 216.67 538.94 210.13 526.96 C 204.88 516.15 199.87 505.18 196.29 493.69 C 191.84 478.84 189.46 463.43 188.24 448.02 C 188.34 436.65 186.56 425.40 186.00 414.08 C 184.14 394.63 181.08 375.26 175.67 356.47 C 187.30 358.95 199.06 361.31 211.01 361.28 C 235.05 361.87 259.60 357.34 280.90 345.89 C 293.16 338.58 304.05 328.28 310.22 315.24 C 316.01 304.53 318.01 292.08 317.18 280.01 C 316.41 259.45 306.18 239.63 290.40 226.53 C 279.29 216.37 264.87 210.68 250.32 207.55 C 218.29 202.03 184.56 207.61 155.88 222.84 C 147.39 227.86 138.92 232.98 131.11 239.04 C 125.57 233.24 119.17 228.39 113.14 223.13 C 122.54 214.24 133.11 206.53 144.56 200.48 C 160.65 191.22 178.69 185.82 196.96 182.96 Z" />
<path fill="#18AAA7" opacity="1.00" d=" M 335.82 401.81 C 338.94 391.15 343.80 381.07 349.64 371.64 C 350.14 374.53 348.74 377.22 348.23 380.00 C 346.06 389.61 347.19 399.54 348.81 409.14 C 351.19 422.55 357.28 435.01 364.72 446.31 C 373.63 459.11 384.83 470.36 397.77 479.10 C 405.61 483.72 413.24 488.78 421.57 492.51 C 432.37 497.25 443.41 501.84 455.11 503.76 C 460.68 505.04 466.24 506.51 471.97 506.91 C 480.62 507.64 489.28 509.15 497.98 508.28 C 533.65 508.38 569.32 508.24 604.99 508.33 C 611.86 508.21 618.74 508.45 625.61 508.11 C 667.73 548.07 709.96 587.94 752.11 627.87 C 755.95 631.58 759.76 635.33 763.83 638.80 C 755.55 639.06 747.28 639.17 739.00 639.11 C 732.20 639.92 725.34 639.72 718.52 639.24 C 708.68 638.78 698.83 639.16 688.99 638.80 C 662.77 638.06 636.54 637.27 610.37 635.42 C 579.74 632.97 549.06 629.73 519.04 622.96 C 494.65 617.78 470.71 610.26 447.99 599.93 C 426.36 590.15 406.10 577.34 388.01 561.95 C 383.15 557.84 378.77 553.22 374.22 548.78 C 369.44 544.16 365.63 538.70 361.48 533.54 C 343.06 508.95 331.96 478.76 330.88 448.00 C 330.08 432.47 331.66 416.81 335.82 401.81 Z" />
<path fill="#18AAA7" opacity="1.00" d=" M 694.18 667.94 C 703.44 667.33 712.73 667.79 722.00 667.64 C 731.11 667.81 740.21 667.65 749.32 667.81 C 773.54 687.80 797.08 708.59 821.17 728.75 C 826.74 733.20 831.93 738.10 837.45 742.62 C 872.56 772.11 907.11 802.25 941.95 832.07 C 951.09 840.31 960.52 848.24 970.01 856.10 C 973.16 858.96 976.27 861.89 979.71 864.43 C 973.05 866.80 966.16 868.92 959.03 869.05 C 955.33 869.08 951.69 869.96 947.99 869.86 C 935.40 869.79 922.81 869.91 910.23 869.75 C 909.76 869.61 908.84 869.32 908.38 869.18 C 889.79 851.58 871.13 834.05 852.47 816.51 C 830.85 797.17 809.96 777.03 788.60 757.41 C 778.54 747.79 768.23 738.44 758.15 728.85 C 738.61 710.04 718.73 691.59 699.03 672.95 C 697.35 671.34 695.78 669.62 694.18 667.94 Z" />
<path fill="#18AAA7" opacity="1.00" d=" M 336.38 800.53 C 368.17 785.24 403.85 778.79 439.01 780.21 C 454.13 780.64 469.08 783.25 483.84 786.36 C 496.49 789.66 508.99 793.70 520.87 799.17 C 549.73 811.68 575.50 831.19 595.63 855.33 C 612.69 876.18 625.44 900.38 633.95 925.89 C 639.03 940.98 641.88 956.75 643.42 972.57 C 643.99 978.04 643.98 983.56 644.81 989.00 L 617.51 989.00 C 617.15 961.37 611.31 933.68 599.46 908.66 C 594.44 897.16 587.67 886.52 580.08 876.55 C 558.69 893.59 537.86 911.32 516.91 928.89 C 511.86 933.15 506.52 937.08 501.75 941.65 C 507.44 949.57 511.86 958.47 514.14 967.97 C 515.87 974.84 516.32 981.94 516.36 989.00 L 475.24 989.00 C 474.07 975.64 467.66 962.26 456.38 954.60 C 442.10 944.63 421.66 944.34 407.26 954.21 C 395.82 961.94 388.29 975.13 387.98 989.00 L 345.54 989.00 C 345.11 978.41 347.27 967.81 351.07 957.96 C 353.25 952.20 356.64 947.02 359.91 941.85 C 334.03 919.63 307.14 898.63 281.08 876.62 C 270.75 889.95 262.75 905.02 256.66 920.72 C 252.79 930.20 250.34 940.18 248.11 950.15 C 245.48 962.91 243.99 975.95 244.35 989.00 L 217.08 989.00 C 217.16 950.74 228.01 912.58 248.11 880.02 C 256.13 866.51 266.16 854.31 276.84 842.84 C 294.27 825.71 314.07 810.72 336.38 800.53 M 327.23 835.17 C 317.80 841.35 308.94 848.38 300.65 856.01 C 319.85 871.62 338.96 887.32 358.18 902.91 C 364.87 908.39 371.80 913.57 378.28 919.30 C 382.59 915.89 386.93 912.50 391.59 909.59 C 399.51 905.08 408.39 902.60 417.33 901.13 C 417.55 875.42 417.45 849.71 417.45 824.00 C 417.34 817.77 417.68 811.53 417.27 805.30 C 385.34 807.17 353.76 817.20 327.23 835.17 M 444.70 805.53 C 444.78 837.58 444.56 869.64 444.76 901.69 C 459.19 902.81 472.23 910.22 483.24 919.22 C 498.69 906.30 514.21 893.47 530.03 881.01 C 536.80 875.11 543.93 869.64 550.86 863.94 C 554.02 861.27 557.12 858.54 560.43 856.05 C 538.89 836.02 512.96 820.35 484.51 812.46 C 471.61 808.42 458.15 806.51 444.70 805.53 Z" />
</g>
<g id="#C1263Bff">
<path fill="#C1263B" opacity="1.00" d=" M 217.38 220.51 C 224.42 219.77 231.46 222.62 236.41 227.60 C 244.80 235.18 246.66 248.52 241.41 258.40 C 237.12 266.89 227.54 272.45 218.00 271.60 C 204.79 271.36 193.32 259.15 193.63 246.00 C 193.43 233.15 204.42 220.97 217.38 220.51 Z" />
</g>
<g id="#1C346Dff">
<path fill="#1C346D" opacity="1.00" d=" M 389.74 342.68 C 398.82 341.28 408.10 340.49 417.26 341.67 C 424.97 342.36 432.72 343.51 440.06 346.08 C 445.69 348.39 451.44 350.45 456.87 353.22 C 458.72 354.24 460.83 354.56 462.92 354.21 C 470.51 358.27 474.98 366.14 482.03 370.93 C 487.72 375.92 492.64 381.73 498.26 386.79 C 506.48 392.79 512.35 401.41 520.58 407.39 C 525.66 411.99 530.16 417.20 535.26 421.79 C 541.00 425.95 545.55 431.47 550.65 436.36 C 553.44 439.60 557.25 441.71 560.18 444.81 C 563.62 448.36 567.19 451.80 570.63 455.36 C 573.39 458.30 577.01 460.28 579.68 463.32 C 584.59 468.07 589.01 473.37 594.58 477.38 C 599.60 482.03 604.25 487.09 609.17 491.85 C 611.45 493.89 614.10 495.52 616.17 497.80 C 619.33 501.23 623.09 504.13 625.61 508.11 C 618.74 508.45 611.86 508.21 604.99 508.33 C 569.32 508.24 533.65 508.38 497.98 508.28 C 489.28 509.15 480.62 507.64 471.97 506.91 C 466.24 506.51 460.68 505.04 455.11 503.76 C 443.41 501.84 432.37 497.25 421.57 492.51 C 413.24 488.78 405.61 483.72 397.77 479.10 C 384.83 470.36 373.63 459.11 364.72 446.31 C 357.28 435.01 351.19 422.55 348.81 409.14 C 347.19 399.54 346.06 389.61 348.23 380.00 C 348.74 377.22 350.14 374.53 349.64 371.64 C 349.11 368.60 348.52 365.58 348.03 362.54 C 350.89 360.26 353.64 357.81 356.79 355.92 C 366.92 349.70 377.94 344.65 389.74 342.68 Z" />
<path fill="#1C346D" opacity="1.00" d=" M 626.30 646.88 C 638.52 646.42 650.76 646.87 662.99 646.66 C 665.93 646.67 668.92 646.40 671.81 647.06 C 674.32 648.84 676.28 651.27 678.69 653.18 C 684.30 657.62 688.94 663.10 694.18 667.94 C 695.78 669.62 697.35 671.34 699.03 672.95 C 718.73 691.59 738.61 710.04 758.15 728.85 C 768.23 738.44 778.54 747.79 788.60 757.41 C 809.96 777.03 830.85 797.17 852.47 816.51 C 871.13 834.05 889.79 851.58 908.38 869.18 C 898.93 869.59 889.46 869.30 880.01 869.45 C 877.72 869.39 875.36 869.54 873.18 868.83 C 870.73 867.34 868.95 865.04 866.94 863.06 C 863.69 859.61 859.69 856.99 856.41 853.58 C 847.99 845.00 839.38 836.61 830.93 828.06 C 827.90 825.08 824.38 822.64 821.42 819.58 C 813.15 811.18 804.73 802.93 796.44 794.56 C 792.48 790.49 787.85 787.16 783.93 783.07 C 778.65 777.68 773.24 772.42 767.94 767.06 C 765.79 764.86 763.39 762.94 760.90 761.16 C 759.22 767.32 761.71 773.48 761.28 779.70 C 759.40 778.63 757.50 777.56 755.93 776.07 C 729.26 749.40 702.57 722.75 675.89 696.10 C 672.80 693.17 669.21 690.76 666.63 687.33 C 663.95 683.68 660.07 681.25 656.92 678.09 C 648.13 669.20 639.29 660.38 630.41 651.59 C 628.94 650.10 627.61 648.49 626.30 646.88 Z" />
</g>
</g>
</svg>
